<?xml version="1.0" encoding="iso-8859-1"?>
<!-- Uploaded to: SVG Repo, www.svgrepo.com, Generator: SVG Repo Mixer Tools -->
<svg height="800px" width="800px" version="1.1" id="Layer_1" xmlns="http://www.w3.org/2000/svg" xmlns:xlink="http://www.w3.org/1999/xlink" 
	 viewBox="0 0 512 512" xml:space="preserve">
<path style="fill:#CAEEC5;" d="M255.996,457.153c-111.803,0-203.278-93.422-203.278-207.604v-69.2h406.559v69.2
	C459.277,363.73,367.8,457.153,255.996,457.153L255.996,457.153L255.996,457.153z"/>
<path style="fill:#5B5B5B;" d="M240.654,397.352c-16.139,9.517-36.963,3.821-46.284-12.663l-14.054-24.866
	c-7.805-13.806-5.15-30.968,5.404-41.771c-0.278-0.355-0.538-0.729-0.766-1.134L44.954,67.678
	c-2.409-4.287-0.885-9.716,3.403-12.124c4.287-2.409,9.716-0.885,12.124,3.403l140,249.239c0.168,0.299,0.312,0.604,0.442,0.913
	c14.425-3.906,30.274,2.322,38.073,16.114l14.06,24.865C262.372,366.569,256.788,387.838,240.654,397.352z"/>
<path style="fill:#FFD63E;" d="M53.789,270.824V245.83c101.481,81.961,189.968-43.256,267.183,0.524
	c57.798,32.771,112.559,36.915,138.306-0.523l0.002,0.032v3.686c0,114.182-91.478,207.604-203.281,207.604
	C151.226,457.153,64.306,375.11,53.789,270.824z"/>
<path style="fill:#9E9D9D;" d="M470.817,503.096c0,4.917-3.987,8.904-8.904,8.904H50.087c-4.917,0-8.904-3.987-8.904-8.904
	c0-4.917,3.987-8.904,8.904-8.904h411.826C466.831,494.191,470.817,498.178,470.817,503.096z"/>
<path style="fill:#97BAA8;" d="M431.454,180.349h27.826v69.2c0,114.182-91.478,207.604-203.281,207.604S52.72,363.73,52.72,249.549
	v-69.2h27.826v69.2c0,99.13,78.708,179.778,175.452,179.778c96.746,0,175.455-80.648,175.455-179.778L431.454,180.349
	L431.454,180.349z"/>
<path style="fill:#B76700;" d="M296.171,313.302h-1.939c-4.917,0-8.904-3.987-8.904-8.904s3.987-8.904,8.904-8.904h1.939
	c4.917,0,8.904,3.987,8.904,8.904S301.088,313.302,296.171,313.302z M367.517,333.607h-1.939c-4.917,0-8.904,3.987-8.904,8.904
	s3.987,8.904,8.904,8.904h1.939c4.917,0,8.904-3.987,8.904-8.904S372.434,333.607,367.517,333.607z M312.067,385.355h-1.933
	c-4.917,0-8.904,3.987-8.904,8.904s3.987,8.904,8.904,8.904h1.933c4.917,0,8.904-3.987,8.904-8.904S316.986,385.355,312.067,385.355
	z M121.888,306.688h-1.939c-4.917,0-8.904,3.987-8.904,8.904s3.987,8.904,8.904,8.904h1.939c4.917,0,8.904-3.987,8.904-8.904
	S126.806,306.688,121.888,306.688z"/>
<path style="fill:#FFBB5E;" d="M238.657,54.912c14.372,21.894,17.514,60.942-0.953,81.975c-1.761,2.005-4.221,3.03-6.695,3.03
	c-2.086,0-4.181-0.729-5.871-2.214c-3.695-3.245-4.06-8.871-0.816-12.566c11.509-13.108,11.242-42.486-0.551-60.451
	c-10.322-15.718-14.653-38.262-11.03-57.433c0.914-4.832,5.57-8.011,10.402-7.096c4.833,0.913,8.009,5.571,7.096,10.403
	C227.472,25.207,230.854,43.031,238.657,54.912z M288.668,54.912c-7.804-11.885-11.186-29.708-8.417-44.351
	c0.914-4.832-2.263-9.49-7.095-10.404c-4.835-0.915-9.49,2.262-10.405,7.095c-3.625,19.167,0.705,41.711,11.029,57.436
	c11.794,17.96,12.062,47.338,0.552,60.452c-3.245,3.696-2.878,9.322,0.818,12.566c1.691,1.484,3.784,2.213,5.87,2.213
	c2.473,0,4.935-1.025,6.695-3.031C306.185,115.848,303.041,76.799,288.668,54.912z"/>
<path style="fill:#5B7F81;" d="M108.241,180.349h20.427l71.812,127.847c0.168,0.299,0.312,0.604,0.442,0.913
	c14.425-3.906,30.274,2.322,38.073,16.114l14.06,24.865c9.316,16.481,3.732,37.751-12.402,47.265
	c-16.139,9.517-36.963,3.821-46.284-12.663l-14.054-24.867c-7.805-13.806-5.15-30.968,5.404-41.771
	c-0.278-0.355-0.538-0.729-0.766-1.134L108.241,180.349z"/>
</svg>